<?xml version="1.0" encoding="UTF-8"?>
<svg id="_Шар_1" data-name="Шар 1" xmlns="http://www.w3.org/2000/svg" viewBox="0 0 1595.64 82.21">
  <defs>
    <style>
      .cls-1 {
        fill: #e2e2e2;
      }
    </style>
  </defs>
  <g>
    <path class="cls-1" d="M242.18,54.61c-2.49,8.15-4.89,16.33-7.55,24.43-.39,1.2-1.98,2.9-3.06,2.93-8.8,.24-17.62,.13-27.12,.13,2.86-9.25,5.57-17.99,8.49-27.41h-29.28l.14,.14c2.68-8.83,5.35-17.67,8.2-27.05h-29.19c2.76-8.86,5.26-17.12,7.99-25.31,.29-.87,1.97-1.89,3.03-1.9,8.68-.15,17.36-.09,26.69-.09-2.77,9.08-5.41,17.73-8.27,27.08h29.15c-2.89,9.4-5.55,18.06-8.36,27.19,10.14,0,19.71,0,29.3,0,0,0-.15-.14-.15-.14Z"/>
    <path class="cls-1" d="M96.57,54.38c-10.22,.1-20.45,.2-30.67,.29l.15,.17c2.85-8.87,5.7-17.74,8.66-26.94h-29.3l.18,.18c2.55-8.44,5.03-16.9,7.73-25.3,.3-.94,1.79-2.2,2.75-2.21,8.81-.17,17.64-.1,27.16-.1-2.85,9.23-5.51,17.86-8.36,27.1h29.2c-2.41,7.76-4.67,14.86-6.81,22-.47,1.56-.53,3.23-.78,4.85,0,0,.09-.03,.09-.03Z"/>
    <path class="cls-1" d="M447.89,54.73h-29.49c2.79-9.02,5.46-17.67,8.35-27.02h-29.26c2.83-9,5.37-17.26,8.1-25.47,.26-.77,1.74-1.69,2.67-1.7,8.68-.13,17.37-.08,26.98-.08-2.81,9.18-5.47,17.88-8.45,27.62h29.48s-.13-.17-.13-.17c-2.8,8.97-5.6,17.95-8.4,26.92l.15-.1Z"/>
    <path class="cls-1" d="M485.68,27.15c.07-.29,.18-.55,.3-.81,2.7-8.78,5.25-17.08,7.95-25.86-9.49,0-18.32-.07-27.13,.1-.95,.02-2.41,1.28-2.71,2.22-2.7,8.34-5.21,16.73-7.77,25.11h29.11c.09-.25,.18-.5,.24-.76Z"/>
    <path class="cls-1" d="M183.65,54.69c-2.48,7.86-5.13,15.67-7.35,23.59-.88,3.13-2.48,4.01-5.81,3.92-8-.21-16.01-.07-24.72-.07,2.87-9.29,5.53-17.93,8.51-27.55h-29.57s.15,.15,.15,.15c2.58-8.77,5.17-17.55,7.75-26.32l-.1,.04c4.12-.26,8.25-.65,12.37-.74,5.7-.13,11.41-.03,17.82-.03-2.86,9.21-5.55,17.84-8.44,27.14,10.19,0,19.86,0,29.53,0,0,0-.14-.14-.14-.14Z"/>
    <path class="cls-1" d="M15.99,28.08C19.04,18.19,21.69,9.56,24.49,.46,15.84,.46,7.88,.42,0,.5V27.69H16.02c-2.89,9.38-5.56,18.03-8.33,27.03h29.34c2.77-8.88,5.55-17.76,8.32-26.64H15.99Z"/>
    <path class="cls-1" d="M330.13,54.83c-9.38,.13-18.76,.25-28.14,.38,0,0,0,0,0,0,.09-1.49-.11-3.05,.31-4.45,2.22-7.48,4.6-14.92,7.09-22.93h-29.15c1.54-5.1,2.81-9.62,4.29-14.08,1.44-4.37,1.8-10.22,5.04-12.56,3.04-2.19,9.23-.67,14.03-.72,4.49-.05,8.98,0,14.26,0-2.78,9.07-5.43,17.69-8.28,26.99h29.34c-3.14,9.68-6.02,18.58-8.91,27.48l.12-.1Z"/>
    <path class="cls-1" d="M250.92,27.95h-29.56c2.91-9.26,5.48-17.64,8.26-25.95,.24-.72,1.87-1.46,2.86-1.48,8.66-.12,17.33-.07,26.73-.07-2.89,9.51-5.64,18.55-8.39,27.58,0,0,.1-.09,.1-.09Z"/>
    <path class="cls-1" d="M368.58,27.93h-29.86c2.92-9.21,5.5-17.47,8.22-25.68,.24-.73,1.41-1.68,2.17-1.69,8.96-.12,17.92-.08,27.32-.08-2.76,9.56-5.36,18.55-7.96,27.53,0,0,.11-.08,.11-.08Z"/>
    <path class="cls-1" d="M389.01,54.73h29.31c-2.79,8.92-5.3,17.19-8.04,25.4-.29,.87-1.94,1.9-2.98,1.92-8.66,.15-17.33,.09-26.91,.09,3.03-9.51,5.89-18.51,8.75-27.5l-.12,.1Z"/>
    <path class="cls-1" d="M124.7,54.59c-2.55,8.42-5.04,16.87-7.74,25.25-.3,.93-1.78,2.18-2.73,2.2-8.8,.17-17.61,.1-27.65,.1,3.5-9.74,6.74-18.74,9.98-27.75,0,0-.09,.03-.08,.02,9.46,.11,18.92,.22,28.37,.33,0,0-.15-.16-.15-.16Z"/>
    <path class="cls-1" d="M447.86,54.82c-2.87,8.88-5.75,17.75-8.83,27.3,9.69,0,18.63,.04,27.58-.08,.78-.01,2.01-.96,2.24-1.68,2.66-8.48,5.17-17.01,7.72-25.52-9.57,0-19.14-.01-28.71-.02Z"/>
    <path class="cls-1" d="M271.01,54.98c10.33,.08,20.65,.15,30.98,.23,0,0,0,0,0,0-.79,1.25-1.87,2.41-2.32,3.76-2.24,6.73-4.22,13.55-6.54,20.25-.4,1.16-2.04,2.74-3.15,2.77-8.67,.23-17.35,.13-26.66,.13,2.7-9.38,5.26-18.31,7.83-27.24,0,0-.13,.1-.13,.1Z"/>
    <path class="cls-1" d="M0,54.85v23.77c2.52-7.7,4.91-15.48,7.5-23.77-2.55,0-5.04,0-7.5,0Z"/>
    <path class="cls-1" d="M132.61,28.42c-3.62-.25-7.23-.64-10.85-.71-5.67-.12-11.34-.03-17.6-.03,2.75-8.88,5.2-17,7.84-25.08,.28-.86,1.6-2.01,2.46-2.02,8.94-.15,17.89-.09,27.78-.09-3.39,9.78-6.55,18.87-9.72,27.97-.01,0,.09-.03,.09-.03Z"/>
    <path class="cls-1" d="M330.01,54.92h29.53c-2.76,8.82-5.37,17.33-8.15,25.78-.21,.65-1.63,1.34-2.5,1.35-8.8,.1-17.61,.06-27.01,.06,2.86-9.44,5.55-18.37,8.25-27.3,0,0-.12,.1-.12,.1Z"/>
    <path class="cls-1" d="M65.89,54.67c-2.52,8.46-4.98,16.93-7.62,25.35-.26,.84-1.59,1.98-2.45,2-8.95,.15-17.9,.09-27.55,.09,3.1-9.56,5.99-18.48,8.88-27.39,0,0-.15,.1-.15,.1,9.68,0,19.37,.01,29.05,.02l-.15-.17Z"/>
    <path class="cls-1" d="M271.15,54.87c-9.65-.09-19.3-.17-28.96-.27,0,0,.15,.14,.15,.13,2.86-8.93,5.72-17.87,8.58-26.8,0,0-.1,.09-.1,.09,9.57,0,19.14,0,29.43,0-3.16,9.21-6.19,18.07-9.24,26.94,0,0,.13-.1,.13-.1Z"/>
    <path class="cls-1" d="M389.13,54.63h-29.64c3.1-9.11,6.1-17.9,9.09-26.7,0,0-.11,.08-.11,.08,9.38,0,18.76,0,28.87,0-2.82,9.04-5.58,17.88-8.34,26.72,0,0,.12-.1,.12-.1Z"/>
  </g>
  <g>
    <path class="cls-1" d="M1486.7,54.82c2.73-8.82,5.47-17.64,8.41-27.12h-29.26c2.8-8.93,5.33-17.17,8.05-25.35,.27-.8,1.71-1.79,2.62-1.8,8.81-.14,17.63-.08,27.18-.08-2.85,9.19-5.52,17.8-8.56,27.6h29.8s-.16-.17-.16-.17c-2.91,8.81-5.82,17.63-8.89,26.94h29.53s-.17-.14-.17-.14c-2.79,9.08-5.59,18.16-8.36,27.18h-29.33c2.83-9.14,5.54-17.88,8.43-27.2-10.25,0-19.84,0-29.43,0,0,0,.15,.14,.15,.14Z"/>
    <path class="cls-1" d="M1193.18,54.61c-2.49,8.15-4.89,16.33-7.55,24.43-.39,1.2-1.98,2.9-3.06,2.93-8.8,.24-17.62,.13-27.12,.13,2.86-9.25,5.57-17.99,8.49-27.41h-29.28l.14,.14c2.68-8.83,5.35-17.67,8.2-27.05h-29.19c2.76-8.86,5.26-17.12,7.99-25.31,.29-.87,1.97-1.89,3.03-1.9,8.68-.15,17.36-.09,26.69-.09-2.77,9.08-5.41,17.73-8.27,27.08h29.15c-2.89,9.4-5.55,18.06-8.36,27.19,10.14,0,19.71,0,29.3,0,0,0-.15-.14-.15-.14Z"/>
    <path class="cls-1" d="M1398.89,54.73h-29.49c2.79-9.02,5.46-17.67,8.35-27.02h-29.26c2.83-9,5.37-17.26,8.1-25.47,.26-.77,1.74-1.69,2.67-1.7,8.68-.13,17.37-.08,26.98-.08-2.81,9.18-5.47,17.88-8.45,27.62h29.48s-.13-.17-.13-.17c-2.8,8.97-5.6,17.95-8.4,26.92l.15-.1Z"/>
    <path class="cls-1" d="M1407.27,28.07c2.58-8.44,5.1-16.89,7.82-25.29,.3-.94,1.76-2.2,2.71-2.22,8.82-.17,17.64-.1,27.13-.1-2.82,9.17-5.48,17.81-8.31,27.04h29.19c-2.19,7.08-4.23,13.48-6.13,19.92-.68,2.29-1.02,4.66-1.51,6.99l.11-.05c-10.22,.1-20.44,.2-30.65,.3l.16,.17c2.87-8.85,5.74-17.71,8.73-26.94h-29.38l.13,.17Z"/>
    <path class="cls-1" d="M1105.27,54.82s-.06,.03-.09,.04c-2.94,9.51-5.58,18.07-8.42,27.27,8.71,0,16.72-.14,24.72,.07,3.33,.09,4.93-.79,5.81-3.92,2.21-7.87,4.84-15.65,7.3-23.46-9.6,0-19.21,0-29.33,0Z"/>
    <path class="cls-1" d="M1281.13,54.83c-9.38,.13-18.76,.25-28.14,.38,0,0,0,0,0,0,.09-1.49-.11-3.05,.31-4.45,2.22-7.48,4.6-14.92,7.09-22.93h-29.15c1.54-5.1,2.81-9.62,4.29-14.08,1.44-4.37,1.8-10.22,5.04-12.56,3.04-2.19,9.23-.67,14.03-.72,4.49-.05,8.98,0,14.26,0-2.78,9.07-5.43,17.69-8.28,26.99h29.34c-3.14,9.68-6.02,18.58-8.91,27.48l.12-.1Z"/>
    <path class="cls-1" d="M1595.64,54.73h-20.88c2.83-9.21,5.49-17.85,8.21-26.7h-29.18l-8.33,26.67c9.53,0,19.06,0,29.22,0-2.88,9.33-5.58,18.09-8.45,27.42,9.63,0,18.45,.04,27.26-.07,.69,0,1.71-.6,2.15-1.2v-26.12Z"/>
    <path class="cls-1" d="M1201.92,27.95h-29.56c2.91-9.26,5.48-17.64,8.26-25.95,.24-.72,1.87-1.46,2.86-1.48,8.66-.12,17.33-.07,26.73-.07-2.89,9.51-5.64,18.55-8.39,27.58,0,0,.1-.09,.1-.09Z"/>
    <path class="cls-1" d="M1319.58,27.93h-29.86c2.92-9.21,5.5-17.47,8.22-25.68,.24-.73,1.41-1.68,2.17-1.69,8.96-.12,17.92-.08,27.32-.08-2.76,9.56-5.36,18.55-7.96,27.53,0,0,.11-.08,.11-.08Z"/>
    <path class="cls-1" d="M1458.16,54.42c9.51,.14,19.02,.27,28.54,.41,0,0-.15-.14-.15-.14-2.53,8.28-4.99,16.59-7.69,24.82-.34,1.05-1.91,2.48-2.93,2.5-8.79,.2-17.58,.11-27.5,.11,3.43-9.69,6.63-18.72,9.83-27.74,.01,0-.1,.04-.1,.04Z"/>
    <path class="cls-1" d="M1340.01,54.73h29.31c-2.79,8.92-5.3,17.19-8.04,25.4-.29,.87-1.94,1.9-2.98,1.92-8.66,.15-17.33,.09-26.91,.09,3.03-9.51,5.89-18.51,8.75-27.5l-.12,.1Z"/>
    <path class="cls-1" d="M1427.62,54.67c-2.57,8.57-5.09,17.15-7.77,25.69-.23,.73-1.46,1.67-2.24,1.68-8.94,.12-17.89,.08-27.58,.08,3.1-9.58,5.98-18.49,8.86-27.39,0,0-.15,.1-.15,.1,9.68,0,19.36,.01,29.04,.02,0,0-.16-.17-.16-.17Z"/>
    <path class="cls-1" d="M1222.01,54.98c10.33,.08,20.65,.15,30.98,.23,0,0,0,0,0,0-.79,1.25-1.87,2.41-2.32,3.76-2.24,6.73-4.22,13.55-6.54,20.25-.4,1.16-2.04,2.74-3.15,2.77-8.67,.23-17.35,.13-26.66,.13,2.7-9.38,5.26-18.31,7.83-27.24,0,0-.13,.1-.13,.1Z"/>
    <path class="cls-1" d="M1595.64,.53c-.49,0-.97,.01-1.46,.02-1.03,.02-2.65,1.09-2.95,1.98-2.71,8.08-5.19,16.22-7.99,25.15,4.27,0,8.38,0,12.4,0V.53Z"/>
    <path class="cls-1" d="M1524.94,28.07c2.51-8.58,4.96-17.19,7.64-25.73,.26-.83,1.99-1.79,3.05-1.81,8.68-.15,17.36-.08,26.72-.08-2.98,9.48-5.83,18.52-8.68,27.57,0,0,.14-.11,.14-.11-9.68,0-19.36-.01-29.05-.02l.16,.17Z"/>
    <path class="cls-1" d="M1281.01,54.92h29.53c-2.76,8.82-5.37,17.33-8.15,25.78-.21,.65-1.63,1.34-2.5,1.35-8.8,.1-17.61,.06-27.01,.06,2.86-9.44,5.55-18.37,8.25-27.3,0,0-.12,.1-.12,.1Z"/>
    <path class="cls-1" d="M1222.15,54.87c-9.65-.09-19.3-.17-28.96-.27,0,0,.15,.14,.15,.13,2.86-8.93,5.72-17.87,8.58-26.8,0,0-.1,.09-.1,.09,9.57,0,19.14,0,29.43,0-3.16,9.21-6.19,18.07-9.24,26.94,0,0,.13-.1,.13-.1Z"/>
    <path class="cls-1" d="M1340.13,54.63h-29.64c3.1-9.11,6.1-17.9,9.09-26.7,0,0-.11,.08-.11,.08,9.38,0,18.76,0,28.87,0-2.82,9.04-5.58,17.88-8.34,26.72,0,0,.12-.1,.12-.1Z"/>
  </g>
</svg>