<?xml version="1.0" encoding="utf-8"?>
<!-- Generator: Adobe Illustrator 27.0.0, SVG Export Plug-In . SVG Version: 6.00 Build 0)  -->
<svg version="1.1" id="Шар_1" xmlns="http://www.w3.org/2000/svg" xmlns:xlink="http://www.w3.org/1999/xlink" x="0px" y="0px"
	 viewBox="0 0 3968.5 2040.94" style="enable-background:new 0 0 3968.5 2040.94;" xml:space="preserve">
<style type="text/css">
	.st0{fill:#FFFFFF;}
</style>
<path class="st0" d="M113.97,856.25c6.93,70.8,15.72,130.7,23.46,176.64c11.09,65.84,21.28,125.24,43.26,200.78
	c18.13,62.33,37.76,113.24,53.21,149.77c7.21,16.95,26.87,56.75,71.11,86.91c36.28,24.74,71.84,31.22,90.06,33.25
	c1153.16,1.59,2306.32,3.19,3459.48,4.78c-28.71-49.22-57.42-98.44-86.13-147.65c9.57-39.65,19.14-79.3,28.71-118.94
	c-105.05-66.17-196.83-116.12-266.6-151.76c-104.29-53.27-243.72-123.63-340.42-131.25c-47.88-3.77-95.54-11.25-143.55-12.3
	c-5.69-0.12-21-0.37-41.01-4.1c-28.93-5.39-49.21-14.62-53.32-16.41c-35.29-15.3-359.54-123.42-697.26-168.16
	c-276.09-36.58-492.3-21.1-549.6-16.41c-123.12,10.08-221.74,28.53-413.93,65.03c-202.69,38.48-370.02,76.69-488.66,105.45
	c-55.02,0.85-113.69,3.6-175.55,8.99c-55.66,4.86-108.36,11.37-157.87,18.94c-36.66-18.71-78.38-37.63-125.01-55.09
	C290.83,864.7,141.31,850.78,113.97,856.25z"/>
</svg>
