<?xml version="1.0" encoding="utf-8"?>
<!-- Generator: Adobe Illustrator 27.0.0, SVG Export Plug-In . SVG Version: 6.00 Build 0)  -->
<svg version="1.1" id="Шар_1" xmlns="http://www.w3.org/2000/svg" xmlns:xlink="http://www.w3.org/1999/xlink" x="0px" y="0px"
	 viewBox="0 0 785.15 762.54" style="enable-background:new 0 0 785.15 762.54;" xml:space="preserve">
<style type="text/css">
	.st0{font-family:'AKONY-Bold';}
	.st1{font-size:619.677px;}
	.st2{fill:#E2E2E2;}
</style>
<text transform="matrix(1 0 0 1 66.1491 -210.0371)" class="st0 st1">IO</text>
<path class="st2" d="M146.15,215.61c0,0-13.14,15.57-13.14,82.71v175.64c0,66.65,13.14,82.22,13.14,82.22H11.38
	c0,0,13.14-15.57,13.14-82.22l1.46-176.12c0-66.65-14.6-82.22-14.6-82.22H146.15z"/>
<path class="st2" d="M132.82,318.51c0,0,7.01,13.14,37.26,13.14h79.11c30.02,0,37.04-13.14,37.04-13.14v134.77
	c0,0-7.01-13.14-37.04-13.14l-79.33-1.46c-30.02,0-37.04,14.6-37.04,14.6V318.51z"/>
<path class="st2" d="M207.72,391.25c0-124.55,143.04-198.02,286.08-198.02c147.42,0,253.97,66.65,253.97,170.28
	c0,124.55-135.25,205.8-278.29,205.8C322.05,569.31,207.72,494.88,207.72,391.25z M645.11,411.68
	c0-111.9-112.39-184.88-208.72-184.88c-89.52,0-121.14,54-121.14,116.28c0,65.2,54.98,184.88,208.72,184.88
	C610.08,527.96,645.11,469.58,645.11,411.68z"/>
<g>
	<path class="st2" d="M-819.42,49.14c0,0-15.57,18.45-15.57,98.01v208.13c0,78.98,15.57,97.43,15.57,97.43h-159.7
		c0,0,15.57-18.45,15.57-97.43l1.73-208.7c0-78.98-17.3-97.43-17.3-97.43H-819.42z"/>
	<path class="st2" d="M-694.5-112.49c-126.62,0-225.82,53.48-284.27,140.43h360.13c6.97-0.3,14.02-0.46,21.15-0.46
		c116.6,0,234.18,47.76,234.18,165.18c0,209.62-241.04,284.59-372.34,284.59c-17.07,0-33.83-0.8-50.05-2.49h-169.52
		c68.03,88,176.18,149.1,316.57,149.1c208.7,0,358.62-155.89,358.62-356.89C-280.03,71.92-443.66-112.49-694.5-112.49z"/>
	<path class="st2" d="M-743.6,188.31l-201.47-1.67c-78.98,0-97.43-15.57-97.43-15.57v159.7c0,0,18.45-15.57,97.43-15.57h201.47
		V188.31z"/>
	<path class="st2" d="M-497.3,291.67c-53.42,23.18-100.27,23.54-128.47,23.54c-100.4,0-200.8,0-301.2,0c0-42.41,0-84.81,0-127.22
		c100.4,0,200.8,0,301.2,0c31.84,0.23,80.14,4.88,132.84,27.95c24.88,10.89,45.41,23.55,61.73,35.4
		C-444.99,262.57-467.19,278.6-497.3,291.67z"/>
</g>
</svg>
